<svg xmlns="http://www.w3.org/2000/svg" viewBox="0 0 900 56" width="900" height="56" shape-rendering="crispEdges" xmlns:c2pa="http://c2pa.org/manifest"><metadata><c2pa:manifest>AAAWgmp1bWIAAAAeanVtZGMycGEAEQAQgAAAqgA4m3EDYzJwYQAAABZcanVtYgAAAEdqdW1kYzJtYQARABCAAACqADibcQN1cm46YzJwYTo2ZDQ3NGQ0ZS1mZTcwLTRmOTAtOWFhZi04NTVmYmY3N2YwZTkAAAADl2p1bWIAAAApanVtZGMyYXMAEQAQgAAAqgA4m3EDYzJwYS5hc3NlcnRpb25zAAAAALxqdW1iAAAARGp1bWRjYm9yABEAEIAAAKoAOJtxE2MycGEuaW5ncmVkaWVudC52MwAAAAAYYzJzaKm3rvwdi/dZs2+/N9dUVBcAAABwY2JvcqNpZGM6Zm9ybWF0bWltYWdlL3N2Zyt4bWxqaW5zdGFuY2VJRHgseG1wOmlpZDo5NjhmNDZjZi0yNTZmLTQzMDctOGYzMy02NWQ0YTRhN2I0OTJscmVsYXRpb25zaGlwaHBhcmVudE9mAAAB4mp1bWIAAABBanVtZGNib3IAEQAQgAAAqgA4m3ETYzJwYS5hY3Rpb25zLnYyAAAAABhjMnNoUcLu4kJbhr9OGwWfwMShpwAAAZljYm9yomdhY3Rpb25zgqJmYWN0aW9ua2MycGEub3BlbmVkanBhcmFtZXRlcnOha2luZ3JlZGllbnRzgaJjdXJseC1zZWxmI2p1bWJmPWMycGEuYXNzZXJ0aW9ucy9jMnBhLmluZ3JlZGllbnQudjNkaGFzaFggEs1jXkZ3T2XNaUgHsMtdal2FD3OTGjwTGuJgvCCCtrmkZmFjdGlvbngdY29tLmFudGhyb3BpYy5jbGF1ZGUucHJvdmlkZWRqcGFyYW1ldGVyc6F4H2NvbS5hbnRocm9waWMub3JpZ2luLWNvbmZpZGVuY2VndW5rbm93bmtkZXNjcmlwdGlvbnhmQ2xhdWRlIHByb3ZpZGVkIHRoaXMgZmlsZSBhdCB0aGUgcmVxdWVzdCBvZiBhIHVzZXIgYW5kIG1heSBoYXZlIGNyZWF0ZWQgb3IgbW9kaWZpZWQgdGhlIGZpbGUgY29udGVudHMubXNvZnR3YXJlQWdlbnShZG5hbWVmQ2xhdWRlcmFsbEFjdGlvbnNJbmNsdWRlZPUAAADIanVtYgAAAEBqdW1kY2JvcgARABCAAACqADibcRNjMnBhLmhhc2guZGF0YQAAAAAYYzJzaICO4ovFPuSbZXFNVwod+x4AAACAY2JvcqVjYWxnZnNoYTI1NmNwYWRNAAAAAAAAAAAAAAAAAGRoYXNoWCDalapFgGgrQGU/CJPtOwx2qKxnh5slBn+ebxDurgBA5mRuYW1lbmp1bWJmIG1hbmlmZXN0amV4Y2x1c2lvbnOBomVzdGFydBixZmxlbmd0aBkeBAAAAj5qdW1iAAAAJ2p1bWRjMmNsABEAEIAAAKoAOJtxA2MycGEuY2xhaW0udjIAAAACD2Nib3KlY2FsZ2ZzaGEyNTZpc2lnbmF0dXJleE1zZWxmI2p1bWJmPS9jMnBhL3VybjpjMnBhOjZkNDc0ZDRlLWZlNzAtNGY5MC05YWFmLTg1NWZiZjc3ZjBlOS9jMnBhLnNpZ25hdHVyZWppbnN0YW5jZUlEeCx4bXA6aWlkOjQyNTU4ZGNkLWIzMWYtNDFhZi04ZmJkLTA1MDc4ZjI2MzRmNHJjcmVhdGVkX2Fzc2VydGlvbnODomN1cmx4LXNlbGYjanVtYmY9YzJwYS5hc3NlcnRpb25zL2MycGEuaW5ncmVkaWVudC52M2RoYXNoWCASzWNeRndPZc1pSAewy11qXYUPc5MaPBMa4mC8IIK2uaJjdXJseCpzZWxmI2p1bWJmPWMycGEuYXNzZXJ0aW9ucy9jMnBhLmFjdGlvbnMudjJkaGFzaFggUO+kNqekQ9ywnSHBxMRyJkcl1ocDWl07H25ZRbgGi26iY3VybHgpc2VsZiNqdW1iZj1jMnBhLmFzc2VydGlvbnMvYzJwYS5oYXNoLmRhdGFkaGFzaFgggmuUvql7TUnzfV0YqTooPLJ6bIE7m8LRCNeYNetIbbZ0Y2xhaW1fZ2VuZXJhdG9yX2luZm+jZG5hbWVvQW50aHJvcGljIEZpbGVzZ3ZlcnNpb25lMS4wLjBrc3BlY1ZlcnNpb25lMi40LjAAABA4anVtYgAAAChqdW1kYzJjcwARABCAAACqADibcQNjMnBhLnNpZ25hdHVyZQAAABAIY2JvctKEWQISogEmGCFZAgowggIGMIIBjaADAgECAhRA5aAK7sI50L64g/oGQgU9Z1UTADAKBggqhkjOPQQDAzBJMRcwFQYDVQQKEw5BbnRocm9waWMsIFBCQzEuMCwGA1UEAxMlQW50aHJvcGljIENvbnRlbnQgQ3JlZGVudGlhbHMgUm9vdCBDQTAeFw0yNjA4MDcxODQzNTZaFw0yODA4MDYxOTQzNTZaMEQxFzAVBgNVBAoTDkFudGhyb3BpYywgUEJDMSkwJwYDVQQDEyBBbnRocm9waWMgQ2xhdWRlIENvbnRlbnQgU2lnbmluZzBZMBMGByqGSM49AgEGCCqGSM49AwEHA0IABJh6CmvLUBgFFNU0vUKlOVtE6djd17L5SuwX0LemFisBM3dkd/3cyjxFA3Qo5S46fX0/ihY0VZ7mfb9KF703t5OjWDBWMA4GA1UdDwEB/wQEAwIHgDAVBgNVHSUEDjAMBgorBgEEAYPoXgIBMAwGA1UdEwEB/wQCMAAwHwYDVR0jBBgwFoAUzlHiBIFOZFsj+OPEz5o+nMHXXMIwCgYIKoZIzj0EAwMDZwAwZAIwMXMdFJ4BetLLVY7ORuE9noqbbAZOZn/aArXyTwFAZfKrPzxF2vPoJNf1+UCdg1XGAjBwX1zd9WGqYkqmL5SFqw1QySjr1zJfpJM9+1rdDwSPLMOPOjKuiXjoU/pUUeG9RwmhY3BhZFkNngAAAAAAAAAAAAAAAAAAAAAAAAAAAAAAAAAAAAAAAAAAAAAAAAAAAAAAAAAAAAAAAAAAAAAAAAAAAAAAAAAAAAAAAAAAAAAAAAAAAAAAAAAAAAAAAAAAAAAAAAAAAAAAAAAAAAAAAAAAAAAAAAAAAAAAAAAAAAAAAAAAAAAAAAAAAAAAAAAAAAAAAAAAAAAAAAAAAAAAAAAAAAAAAAAAAAAAAAAAAAAAAAAAAAAAAAAAAAAAAAAAAAAAAAAAAAAAAAAAAAAAAAAAAAAAAAAAAAAAAAAAAAAAAAAAAAAAAAAAAAAAAAAAAAAAAAAAAAAAAAAAAAAAAAAAAAAAAAAAAAAAAAAAAAAAAAAAAAAAAAAAAAAAAAAAAAAAAAAAAAAAAAAAAAAAAAAAAAAAAAAAAAAAAAAAAAAAAAAAAAAAAAAAAAAAAAAAAAAAAAAAAAAAAAAAAAAAAAAAAAAAAAAAAAAAAAAAAAAAAAAAAAAAAAAAAAAAAAAAAAAAAAAAAAAAAAAAAAAAAAAAAAAAAAAAAAAAAAAAAAAAAAAAAAAAAAAAAAAAAAAAAAAAAAAAAAAAAAAAAAAAAAAAAAAAAAAAAAAAAAAAAAAAAAAAAAAAAAAAAAAAAAAAAAAAAAAAAAAAAAAAAAAAAAAAAAAAAAAAAAAAAAAAAAAAAAAAAAAAAAAAAAAAAAAAAAAAAAAAAAAAAAAAAAAAAAAAAAAAAAAAAAAAAAAAAAAAAAAAAAAAAAAAAAAAAAAAAAAAAAAAAAAAAAAAAAAAAAAAAAAAAAAAAAAAAAAAAAAAAAAAAAAAAAAAAAAAAAAAAAAAAAAAAAAAAAAAAAAAAAAAAAAAAAAAAAAAAAAAAAAAAAAAAAAAAAAAAAAAAAAAAAAAAAAAAAAAAAAAAAAAAAAAAAAAAAAAAAAAAAAAAAAAAAAAAAAAAAAAAAAAAAAAAAAAAAAAAAAAAAAAAAAAAAAAAAAAAAAAAAAAAAAAAAAAAAAAAAAAAAAAAAAAAAAAAAAAAAAAAAAAAAAAAAAAAAAAAAAAAAAAAAAAAAAAAAAAAAAAAAAAAAAAAAAAAAAAAAAAAAAAAAAAAAAAAAAAAAAAAAAAAAAAAAAAAAAAAAAAAAAAAAAAAAAAAAAAAAAAAAAAAAAAAAAAAAAAAAAAAAAAAAAAAAAAAAAAAAAAAAAAAAAAAAAAAAAAAAAAAAAAAAAAAAAAAAAAAAAAAAAAAAAAAAAAAAAAAAAAAAAAAAAAAAAAAAAAAAAAAAAAAAAAAAAAAAAAAAAAAAAAAAAAAAAAAAAAAAAAAAAAAAAAAAAAAAAAAAAAAAAAAAAAAAAAAAAAAAAAAAAAAAAAAAAAAAAAAAAAAAAAAAAAAAAAAAAAAAAAAAAAAAAAAAAAAAAAAAAAAAAAAAAAAAAAAAAAAAAAAAAAAAAAAAAAAAAAAAAAAAAAAAAAAAAAAAAAAAAAAAAAAAAAAAAAAAAAAAAAAAAAAAAAAAAAAAAAAAAAAAAAAAAAAAAAAAAAAAAAAAAAAAAAAAAAAAAAAAAAAAAAAAAAAAAAAAAAAAAAAAAAAAAAAAAAAAAAAAAAAAAAAAAAAAAAAAAAAAAAAAAAAAAAAAAAAAAAAAAAAAAAAAAAAAAAAAAAAAAAAAAAAAAAAAAAAAAAAAAAAAAAAAAAAAAAAAAAAAAAAAAAAAAAAAAAAAAAAAAAAAAAAAAAAAAAAAAAAAAAAAAAAAAAAAAAAAAAAAAAAAAAAAAAAAAAAAAAAAAAAAAAAAAAAAAAAAAAAAAAAAAAAAAAAAAAAAAAAAAAAAAAAAAAAAAAAAAAAAAAAAAAAAAAAAAAAAAAAAAAAAAAAAAAAAAAAAAAAAAAAAAAAAAAAAAAAAAAAAAAAAAAAAAAAAAAAAAAAAAAAAAAAAAAAAAAAAAAAAAAAAAAAAAAAAAAAAAAAAAAAAAAAAAAAAAAAAAAAAAAAAAAAAAAAAAAAAAAAAAAAAAAAAAAAAAAAAAAAAAAAAAAAAAAAAAAAAAAAAAAAAAAAAAAAAAAAAAAAAAAAAAAAAAAAAAAAAAAAAAAAAAAAAAAAAAAAAAAAAAAAAAAAAAAAAAAAAAAAAAAAAAAAAAAAAAAAAAAAAAAAAAAAAAAAAAAAAAAAAAAAAAAAAAAAAAAAAAAAAAAAAAAAAAAAAAAAAAAAAAAAAAAAAAAAAAAAAAAAAAAAAAAAAAAAAAAAAAAAAAAAAAAAAAAAAAAAAAAAAAAAAAAAAAAAAAAAAAAAAAAAAAAAAAAAAAAAAAAAAAAAAAAAAAAAAAAAAAAAAAAAAAAAAAAAAAAAAAAAAAAAAAAAAAAAAAAAAAAAAAAAAAAAAAAAAAAAAAAAAAAAAAAAAAAAAAAAAAAAAAAAAAAAAAAAAAAAAAAAAAAAAAAAAAAAAAAAAAAAAAAAAAAAAAAAAAAAAAAAAAAAAAAAAAAAAAAAAAAAAAAAAAAAAAAAAAAAAAAAAAAAAAAAAAAAAAAAAAAAAAAAAAAAAAAAAAAAAAAAAAAAAAAAAAAAAAAAAAAAAAAAAAAAAAAAAAAAAAAAAAAAAAAAAAAAAAAAAAAAAAAAAAAAAAAAAAAAAAAAAAAAAAAAAAAAAAAAAAAAAAAAAAAAAAAAAAAAAAAAAAAAAAAAAAAAAAAAAAAAAAAAAAAAAAAAAAAAAAAAAAAAAAAAAAAAAAAAAAAAAAAAAAAAAAAAAAAAAAAAAAAAAAAAAAAAAAAAAAAAAAAAAAAAAAAAAAAAAAAAAAAAAAAAAAAAAAAAAAAAAAAAAAAAAAAAAAAAAAAAAAAAAAAAAAAAAAAAAAAAAAAAAAAAAAAAAAAAAAAAAAAAAAAAAAAAAAAAAAAAAAAAAAAAAAAAAAAAAAAAAAAAAAAAAAAAAAAAAAAAAAAAAAAAAAAAAAAAAAAAAAAAAAAAAAAAAAAAAAAAAAAAAAAAAAAAAAAAAAAAAAAAAAAAAAAAAAAAAAAAAAAAAAAAAAAAAAAAAAAAAAAAAAAAAAAAAAAAAAAAAAAAAAAAAAAAAAAAAAAAAAAAAAAAAAAAAAAAAAAAAAAAAAAAAAAAAAAAAAAAAAAAAAAAAAAAAAAAAAAAAAAAAAAAAAAAAAAAAAAAAAAAAAAAAAAAAAAAAAAAAAAAAAAAAAAAAAAAAAAAAAAAAAAAAAAAAAAAAAAAAAAAAAAAAAAAAAAAAAAAAAAAAAAAAAAAAAAAAAAAAAAAAAAAAAAAAAAAAAAAAAAAAAAAAAAAAAAAAAAAAAAAAAAAAAAAAAAAAAAAAAAAAAAAAAAAAAAAAAAAAAAAAAAAAAAAAAAAAAAAAAAAAAAAAAAAAAAAAAAAAAAAAAAAAAAAAAAAAAAAAAAAAAAAAAAAAAAAAAAAAAAAAAAAAAAAAAAAAAAAAAAAAAAAAAAAAAAAAAAAAAAAAAAAAAAAAAAAAAAAAAAAAAAAAAAAAAAAAAAAAAAAAAAAAAAAAAAAAAAAAAAAAAAAAAAAAAAAAAAAAAAAAAAAAAAAAAAAAAAAAAAAAAAAAAAAAAAAAAAAAAAAAAAAAAAAAAAAAAAAAAAAAAAAAAAAAAAAAAAAAAAAAAAAAAAAAAAAAAAAAAAAAAAAAAAAAAAAAAAAAAAAAAAAAAAAAAAAAAAAAAAAAAAAAAAAAAAAAAAAAAAAAAAAAAAAAAAAAAAAAAAAAAAAAAAAAAAAAAAAAAAAAAAAAAAAAAAAAAAAAAAAAAAAAAAAAAAAAAAAAAAAAAAAAAAAAAAAAAAAAAAAAAAAAAAAAAAAAAAAAAAAAAAAAAAAAAAAAAAAAAAAAAAAAAAAAAAAAAAAAAAAAAAAAAAAAAAAAAAAAAAAAAAAAAAAAAAAAAAAAAAAAAAAAAAAAAAAAAAAAAAAAAAAAAAAAAAAAAAAAAAAAAAAAAAAAAAAAAAAAAAAAAAAAAAAAAAAAAAAAAAAAAAAAAAAAAAAAAAAAAAAAAAAAAAAAAAAAAAAAAAAAAAAAAAAAAAAAAAAAAAAAAAAAAAAAAAAAAAAAAAAAAAAAAAAAAAAAAAAAAAAAAAAAAAAAAAAAAAAAAAAAAAAAAAAAAAAAAAAAAAAAAAAAAAAAAAAAAAAAAAAAAAAAAAAAAAAAAAAAAAAAAAAAAAAAAAAAAAAAAAAAAAAAAAAAAAAAAAAAAAAAAAAAAAAAAAAAAAAAAAAAAAAAAAAAAAAAAAAAAAAAAAAAAAAAAAAAAAAAAAAAAAAAAAAAAAAAAAAAAAAAAAAAAAAAAAAAAAAAAAAAAAAAAAAAAAAAAAAAAAAAAAAAAAAAAAAAAAAAAAAAAAAAAAAAAAAAAAAAAAAAAAAAAAAAAAAAAAAAAAAAAAAAAAAAAAAAAAAAAAAAAAAAAAAAAAAAAAAAAAAAAAAAAAAAAAAAAAAAAAAAAAAAAAAAAAAAAAAAAAAAAAAAAAAAAAAAAAAAAAAAAAAAAAAAAAAAAAAAAAAAAAAAAAAAAAAAAAAAAAAAAAAAAAAAAAAAAAAAAAAAAAAAAAAAAAAAAAAAAAAAAAAAAAAAAAAAAAAAAAAAAAAAAAAAAAAAAAAAAAAAAAAAAAAAAAAAAAAAAAAAAAAAAAAAAAAAAAAAAAAAAAAAAAAAAAAAAAAAAAAAAAAAAAAAAAAAAAAAAAAAAAAAAAAPZYQEWVs70SfhmNRfpBiwbRuYD39oSC68eDwKN5cCpaSK6C32WPMKLU+qckqOoLnUnnFaFs9pfOOS5sihXylq5Z2/k=</c2pa:manifest></metadata><rect width="900" height="56" fill="#0b0b14"/><rect x="16" y="14" width="4" height="4" fill="#f1f5f9"/><rect x="20" y="14" width="4" height="4" fill="#f1f5f9"/><rect x="24" y="14" width="4" height="4" fill="#f1f5f9"/><rect x="28" y="14" width="4" height="4" fill="#f1f5f9"/><rect x="16" y="18" width="4" height="4" fill="#f1f5f9"/><rect x="32" y="18" width="4" height="4" fill="#f1f5f9"/><rect x="16" y="22" width="4" height="4" fill="#f1f5f9"/><rect x="32" y="22" width="4" height="4" fill="#f1f5f9"/><rect x="16" y="26" width="4" height="4" fill="#f1f5f9"/><rect x="20" y="26" width="4" height="4" fill="#f1f5f9"/><rect x="24" y="26" width="4" height="4" fill="#f1f5f9"/><rect x="28" y="26" width="4" height="4" fill="#f1f5f9"/><rect x="16" y="30" width="4" height="4" fill="#f1f5f9"/><rect x="32" y="30" width="4" height="4" fill="#f1f5f9"/><rect x="16" y="34" width="4" height="4" fill="#f1f5f9"/><rect x="32" y="34" width="4" height="4" fill="#f1f5f9"/><rect x="16" y="38" width="4" height="4" fill="#f1f5f9"/><rect x="20" y="38" width="4" height="4" fill="#f1f5f9"/><rect x="24" y="38" width="4" height="4" fill="#f1f5f9"/><rect x="28" y="38" width="4" height="4" fill="#f1f5f9"/><rect x="40" y="14" width="4" height="4" fill="#f1f5f9"/><rect x="44" y="14" width="4" height="4" fill="#f1f5f9"/><rect x="48" y="14" width="4" height="4" fill="#f1f5f9"/><rect x="52" y="14" width="4" height="4" fill="#f1f5f9"/><rect x="56" y="14" width="4" height="4" fill="#f1f5f9"/><rect x="40" y="18" width="4" height="4" fill="#f1f5f9"/><rect x="40" y="22" width="4" height="4" fill="#f1f5f9"/><rect x="40" y="26" width="4" height="4" fill="#f1f5f9"/><rect x="44" y="26" width="4" height="4" fill="#f1f5f9"/><rect x="48" y="26" width="4" height="4" fill="#f1f5f9"/><rect x="52" y="26" width="4" height="4" fill="#f1f5f9"/><rect x="40" y="30" width="4" height="4" fill="#f1f5f9"/><rect x="40" y="34" width="4" height="4" fill="#f1f5f9"/><rect x="40" y="38" width="4" height="4" fill="#f1f5f9"/><rect x="44" y="38" width="4" height="4" fill="#f1f5f9"/><rect x="48" y="38" width="4" height="4" fill="#f1f5f9"/><rect x="52" y="38" width="4" height="4" fill="#f1f5f9"/><rect x="56" y="38" width="4" height="4" fill="#f1f5f9"/><rect x="64" y="14" width="4" height="4" fill="#f1f5f9"/><rect x="80" y="14" width="4" height="4" fill="#f1f5f9"/><rect x="64" y="18" width="4" height="4" fill="#f1f5f9"/><rect x="80" y="18" width="4" height="4" fill="#f1f5f9"/><rect x="68" y="22" width="4" height="4" fill="#f1f5f9"/><rect x="76" y="22" width="4" height="4" fill="#f1f5f9"/><rect x="72" y="26" width="4" height="4" fill="#f1f5f9"/><rect x="72" y="30" width="4" height="4" fill="#f1f5f9"/><rect x="72" y="34" width="4" height="4" fill="#f1f5f9"/><rect x="72" y="38" width="4" height="4" fill="#f1f5f9"/><rect x="92" y="14" width="4" height="4" fill="#f1f5f9"/><rect x="96" y="14" width="4" height="4" fill="#f1f5f9"/><rect x="100" y="14" width="4" height="4" fill="#f1f5f9"/><rect x="88" y="18" width="4" height="4" fill="#f1f5f9"/><rect x="104" y="18" width="4" height="4" fill="#f1f5f9"/><rect x="88" y="22" width="4" height="4" fill="#f1f5f9"/><rect x="104" y="22" width="4" height="4" fill="#f1f5f9"/><rect x="88" y="26" width="4" height="4" fill="#f1f5f9"/><rect x="104" y="26" width="4" height="4" fill="#f1f5f9"/><rect x="88" y="30" width="4" height="4" fill="#f1f5f9"/><rect x="104" y="30" width="4" height="4" fill="#f1f5f9"/><rect x="88" y="34" width="4" height="4" fill="#f1f5f9"/><rect x="104" y="34" width="4" height="4" fill="#f1f5f9"/><rect x="92" y="38" width="4" height="4" fill="#f1f5f9"/><rect x="96" y="38" width="4" height="4" fill="#f1f5f9"/><rect x="100" y="38" width="4" height="4" fill="#f1f5f9"/><rect x="112" y="14" width="4" height="4" fill="#f1f5f9"/><rect x="128" y="14" width="4" height="4" fill="#f1f5f9"/><rect x="112" y="18" width="4" height="4" fill="#f1f5f9"/><rect x="116" y="18" width="4" height="4" fill="#f1f5f9"/><rect x="128" y="18" width="4" height="4" fill="#f1f5f9"/><rect x="112" y="22" width="4" height="4" fill="#f1f5f9"/><rect x="120" y="22" width="4" height="4" fill="#f1f5f9"/><rect x="128" y="22" width="4" height="4" fill="#f1f5f9"/><rect x="112" y="26" width="4" height="4" fill="#f1f5f9"/><rect x="124" y="26" width="4" height="4" fill="#f1f5f9"/><rect x="128" y="26" width="4" height="4" fill="#f1f5f9"/><rect x="112" y="30" width="4" height="4" fill="#f1f5f9"/><rect x="128" y="30" width="4" height="4" fill="#f1f5f9"/><rect x="112" y="34" width="4" height="4" fill="#f1f5f9"/><rect x="128" y="34" width="4" height="4" fill="#f1f5f9"/><rect x="112" y="38" width="4" height="4" fill="#f1f5f9"/><rect x="128" y="38" width="4" height="4" fill="#f1f5f9"/><rect x="136" y="14" width="4" height="4" fill="#f1f5f9"/><rect x="140" y="14" width="4" height="4" fill="#f1f5f9"/><rect x="144" y="14" width="4" height="4" fill="#f1f5f9"/><rect x="148" y="14" width="4" height="4" fill="#f1f5f9"/><rect x="136" y="18" width="4" height="4" fill="#f1f5f9"/><rect x="152" y="18" width="4" height="4" fill="#f1f5f9"/><rect x="136" y="22" width="4" height="4" fill="#f1f5f9"/><rect x="152" y="22" width="4" height="4" fill="#f1f5f9"/><rect x="136" y="26" width="4" height="4" fill="#f1f5f9"/><rect x="152" y="26" width="4" height="4" fill="#f1f5f9"/><rect x="136" y="30" width="4" height="4" fill="#f1f5f9"/><rect x="152" y="30" width="4" height="4" fill="#f1f5f9"/><rect x="136" y="34" width="4" height="4" fill="#f1f5f9"/><rect x="152" y="34" width="4" height="4" fill="#f1f5f9"/><rect x="136" y="38" width="4" height="4" fill="#f1f5f9"/><rect x="140" y="38" width="4" height="4" fill="#f1f5f9"/><rect x="144" y="38" width="4" height="4" fill="#f1f5f9"/><rect x="148" y="38" width="4" height="4" fill="#f1f5f9"/><rect x="188" y="14" width="4" height="4" fill="#f1f5f9"/><rect x="192" y="14" width="4" height="4" fill="#f1f5f9"/><rect x="196" y="14" width="4" height="4" fill="#f1f5f9"/><rect x="184" y="18" width="4" height="4" fill="#f1f5f9"/><rect x="200" y="18" width="4" height="4" fill="#f1f5f9"/><rect x="184" y="22" width="4" height="4" fill="#f1f5f9"/><rect x="184" y="26" width="4" height="4" fill="#f1f5f9"/><rect x="184" y="30" width="4" height="4" fill="#f1f5f9"/><rect x="184" y="34" width="4" height="4" fill="#f1f5f9"/><rect x="200" y="34" width="4" height="4" fill="#f1f5f9"/><rect x="188" y="38" width="4" height="4" fill="#f1f5f9"/><rect x="192" y="38" width="4" height="4" fill="#f1f5f9"/><rect x="196" y="38" width="4" height="4" fill="#f1f5f9"/><rect x="212" y="14" width="4" height="4" fill="#f1f5f9"/><rect x="216" y="14" width="4" height="4" fill="#f1f5f9"/><rect x="220" y="14" width="4" height="4" fill="#f1f5f9"/><rect x="208" y="18" width="4" height="4" fill="#f1f5f9"/><rect x="224" y="18" width="4" height="4" fill="#f1f5f9"/><rect x="208" y="22" width="4" height="4" fill="#f1f5f9"/><rect x="224" y="22" width="4" height="4" fill="#f1f5f9"/><rect x="208" y="26" width="4" height="4" fill="#f1f5f9"/><rect x="224" y="26" width="4" height="4" fill="#f1f5f9"/><rect x="208" y="30" width="4" height="4" fill="#f1f5f9"/><rect x="224" y="30" width="4" height="4" fill="#f1f5f9"/><rect x="208" y="34" width="4" height="4" fill="#f1f5f9"/><rect x="224" y="34" width="4" height="4" fill="#f1f5f9"/><rect x="212" y="38" width="4" height="4" fill="#f1f5f9"/><rect x="216" y="38" width="4" height="4" fill="#f1f5f9"/><rect x="220" y="38" width="4" height="4" fill="#f1f5f9"/><rect x="232" y="14" width="4" height="4" fill="#f1f5f9"/><rect x="236" y="14" width="4" height="4" fill="#f1f5f9"/><rect x="240" y="14" width="4" height="4" fill="#f1f5f9"/><rect x="244" y="14" width="4" height="4" fill="#f1f5f9"/><rect x="232" y="18" width="4" height="4" fill="#f1f5f9"/><rect x="248" y="18" width="4" height="4" fill="#f1f5f9"/><rect x="232" y="22" width="4" height="4" fill="#f1f5f9"/><rect x="248" y="22" width="4" height="4" fill="#f1f5f9"/><rect x="232" y="26" width="4" height="4" fill="#f1f5f9"/><rect x="248" y="26" width="4" height="4" fill="#f1f5f9"/><rect x="232" y="30" width="4" height="4" fill="#f1f5f9"/><rect x="248" y="30" width="4" height="4" fill="#f1f5f9"/><rect x="232" y="34" width="4" height="4" fill="#f1f5f9"/><rect x="248" y="34" width="4" height="4" fill="#f1f5f9"/><rect x="232" y="38" width="4" height="4" fill="#f1f5f9"/><rect x="236" y="38" width="4" height="4" fill="#f1f5f9"/><rect x="240" y="38" width="4" height="4" fill="#f1f5f9"/><rect x="244" y="38" width="4" height="4" fill="#f1f5f9"/><rect x="256" y="14" width="4" height="4" fill="#f1f5f9"/><rect x="260" y="14" width="4" height="4" fill="#f1f5f9"/><rect x="264" y="14" width="4" height="4" fill="#f1f5f9"/><rect x="268" y="14" width="4" height="4" fill="#f1f5f9"/><rect x="272" y="14" width="4" height="4" fill="#f1f5f9"/><rect x="256" y="18" width="4" height="4" fill="#f1f5f9"/><rect x="256" y="22" width="4" height="4" fill="#f1f5f9"/><rect x="256" y="26" width="4" height="4" fill="#f1f5f9"/><rect x="260" y="26" width="4" height="4" fill="#f1f5f9"/><rect x="264" y="26" width="4" height="4" fill="#f1f5f9"/><rect x="268" y="26" width="4" height="4" fill="#f1f5f9"/><rect x="256" y="30" width="4" height="4" fill="#f1f5f9"/><rect x="256" y="34" width="4" height="4" fill="#f1f5f9"/><rect x="256" y="38" width="4" height="4" fill="#f1f5f9"/><rect x="260" y="38" width="4" height="4" fill="#f1f5f9"/><rect x="264" y="38" width="4" height="4" fill="#f1f5f9"/><rect x="268" y="38" width="4" height="4" fill="#f1f5f9"/><rect x="272" y="38" width="4" height="4" fill="#f1f5f9"/><rect x="316" y="20" width="8" height="8" fill="#6366f1"/><rect x="348" y="20" width="16" height="8" fill="#6d28d9"/><rect x="388" y="20" width="16" height="8" fill="#22d3ee"/><rect x="420" y="20" width="16" height="8" fill="#8b5cf6"/><rect x="444" y="20" width="16" height="8" fill="#4c1d95"/><rect x="460" y="20" width="16" height="8" fill="#6366f1"/><rect x="484" y="20" width="24" height="8" fill="#6d28d9"/><rect x="508" y="20" width="8" height="8" fill="#e2e8f0"/><rect x="532" y="20" width="24" height="8" fill="#e2e8f0"/><rect x="620" y="20" width="24" height="8" fill="#e2e8f0"/><rect x="644" y="20" width="8" height="8" fill="#4c1d95"/><rect x="676" y="20" width="8" height="8" fill="#8b5cf6"/><rect x="700" y="20" width="16" height="8" fill="#67e8f9"/><rect x="772" y="20" width="8" height="8" fill="#6366f1"/><rect x="788" y="20" width="8" height="8" fill="#e2e8f0"/><rect x="796" y="20" width="16" height="8" fill="#4c1d95"/><rect x="812" y="20" width="16" height="8" fill="#6366f1"/><rect x="828" y="20" width="8" height="8" fill="#e2e8f0"/><rect x="860" y="20" width="16" height="8" fill="#22d3ee"/><rect x="884" y="20" width="8" height="8" fill="#4c1d95"/><rect x="308" y="28" width="16" height="8" fill="#6366f1"/><rect x="356" y="28" width="24" height="8" fill="#8b5cf6"/><rect x="404" y="28" width="24" height="8" fill="#d946ef"/><rect x="476" y="28" width="8" height="8" fill="#6d28d9"/><rect x="516" y="28" width="8" height="8" fill="#22d3ee"/><rect x="524" y="28" width="8" height="8" fill="#14b8a6"/><rect x="548" y="28" width="8" height="8" fill="#e2e8f0"/><rect x="556" y="28" width="8" height="8" fill="#d946ef"/><rect x="652" y="28" width="24" height="8" fill="#6d28d9"/><rect x="676" y="28" width="8" height="8" fill="#14b8a6"/><rect x="708" y="28" width="8" height="8" fill="#14b8a6"/><rect x="732" y="28" width="16" height="8" fill="#e2e8f0"/><rect x="748" y="28" width="24" height="8" fill="#6d28d9"/><rect x="788" y="28" width="8" height="8" fill="#06b6d4"/><rect x="804" y="28" width="8" height="8" fill="#67e8f9"/><rect x="820" y="28" width="8" height="8" fill="#14b8a6"/><rect x="836" y="28" width="8" height="8" fill="#14b8a6"/><rect x="868" y="28" width="8" height="8" fill="#c4b5fd"/><rect x="876" y="28" width="16" height="8" fill="#8b5cf6"/><rect x="300" y="36" width="16" height="8" fill="#22d3ee"/><rect x="332" y="36" width="8" height="8" fill="#e2e8f0"/><rect x="340" y="36" width="8" height="8" fill="#4c1d95"/><rect x="348" y="36" width="8" height="8" fill="#4c1d95"/><rect x="380" y="36" width="8" height="8" fill="#e2e8f0"/><rect x="404" y="36" width="24" height="8" fill="#e2e8f0"/><rect x="468" y="36" width="8" height="8" fill="#4c1d95"/><rect x="476" y="36" width="24" height="8" fill="#e2e8f0"/><rect x="508" y="36" width="8" height="8" fill="#14b8a6"/><rect x="572" y="36" width="24" height="8" fill="#67e8f9"/><rect x="612" y="36" width="16" height="8" fill="#06b6d4"/><rect x="644" y="36" width="16" height="8" fill="#6d28d9"/><rect x="716" y="36" width="16" height="8" fill="#d946ef"/><rect x="732" y="36" width="24" height="8" fill="#14b8a6"/><rect x="764" y="36" width="8" height="8" fill="#06b6d4"/><rect x="780" y="36" width="24" height="8" fill="#06b6d4"/><rect x="804" y="36" width="8" height="8" fill="#06b6d4"/><rect x="836" y="36" width="16" height="8" fill="#06b6d4"/></svg>